<svg xmlns="http://www.w3.org/2000/svg" viewBox="0 0 880 580" width="880" height="580" role="img" aria-labelledby="ttl dsc">
<title id="ttl">Agent BMO module map</title>
<desc id="dsc">Nine conceptual modules. Market observer feeds strategy, strategy feeds decision, decision goes through the risk engine, which can veto. Approved actions go to execution, which signs from the wallet. Wallet state feeds the position manager, which sends exits and writes to memory. Memory informs strategy. Only the wallet is live.</desc>
<style>
text{font-family:ui-monospace,SFMono-Regular,Menlo,Consolas,'Liberation Mono','DejaVu Sans Mono',monospace;}
.b{font-weight:700}
.blink{animation:blink 1.1s steps(1) infinite}
.blinkslow{animation:blink 2.4s steps(1) infinite}
.pulse{animation:pulse 2.6s ease-in-out infinite}
@keyframes blink{0%{opacity:1}50%{opacity:0}100%{opacity:1}}
@keyframes pulse{0%,100%{opacity:.35}50%{opacity:1}}
@media (prefers-reduced-motion: reduce){.blink,.blinkslow,.pulse{animation:none}}

.bus{stroke-dasharray:4 6;animation:bus 1s linear infinite}
@keyframes bus{to{stroke-dashoffset:-20}}

</style><defs>
<filter id="glow" x="-20%" y="-20%" width="140%" height="140%">
  <feGaussianBlur stdDeviation="2.2" result="b"/>
  <feMerge><feMergeNode in="b"/><feMergeNode in="SourceGraphic"/></feMerge>
</filter>
<filter id="glowsoft" x="-10%" y="-40%" width="120%" height="180%">
  <feGaussianBlur stdDeviation="1.1" result="b"/>
  <feMerge><feMergeNode in="b"/><feMergeNode in="SourceGraphic"/></feMerge>
</filter>
<filter id="glowbig" x="-30%" y="-30%" width="160%" height="160%">
  <feGaussianBlur stdDeviation="5" result="b"/>
  <feMerge><feMergeNode in="b"/><feMergeNode in="b"/><feMergeNode in="SourceGraphic"/></feMerge>
</filter>
<pattern id="scan" width="4" height="4" patternUnits="userSpaceOnUse">
  <rect width="4" height="1" fill="#000" opacity=".38"/>
</pattern>
<pattern id="dots" width="20" height="20" patternUnits="userSpaceOnUse">
  <rect x="9.5" y="9.5" width="1" height="1" fill="#0b3a21"/>
</pattern>
<radialGradient id="vig" cx="50%" cy="50%" r="75%">
  <stop offset="60%" stop-color="#000" stop-opacity="0"/>
  <stop offset="100%" stop-color="#000" stop-opacity=".75"/>
</radialGradient>
<linearGradient id="roll" x1="0" y1="0" x2="0" y2="1">
  <stop offset="0" stop-color="#3dff8c" stop-opacity="0"/>
  <stop offset=".85" stop-color="#3dff8c" stop-opacity=".06"/>
  <stop offset="1" stop-color="#3dff8c" stop-opacity="0"/>
</linearGradient>
<marker id="arr" viewBox="0 0 10 10" refX="8" refY="5" markerWidth="7" markerHeight="7" orient="auto-start-reverse">
  <path d="M0,0 L10,5 L0,10 z" fill="#22b863"/>
</marker>
<marker id="arrA" viewBox="0 0 10 10" refX="8" refY="5" markerWidth="7" markerHeight="7" orient="auto-start-reverse">
  <path d="M0,0 L10,5 L0,10 z" fill="#ffb000"/>
</marker>
<marker id="arrR" viewBox="0 0 10 10" refX="8" refY="5" markerWidth="7" markerHeight="7" orient="auto-start-reverse">
  <path d="M0,0 L10,5 L0,10 z" fill="#ff4d4d"/>
</marker>

</defs>
<rect width="880" height="580" rx="14" fill="#000000"/>
<rect width="880" height="580" rx="14" fill="url(#dots)"/>
<line x1="24" y1="40" x2="856" y2="40" stroke="#0b3a21"/>
<text x="24" y="30" font-size="11" fill="#22b863" letter-spacing="2">AGENT BMO / MODULE MAP</text>
<text x="856" y="30" font-size="11" fill="#136b3a" text-anchor="end" letter-spacing="2">1 OF 9 LIVE</text>
<path d="M260,130.0 H328" fill="none" stroke="#22b863" stroke-opacity=".35" stroke-width="1.5" marker-end="url(#arr)"/><path d="M260,130.0 H328" fill="none" stroke="#22b863" stroke-width="1.5" class="bus"/>
<text x="294.0" y="123.0" font-size="9" fill="#136b3a" text-anchor="middle">snapshots</text>
<path d="M550,130.0 H618" fill="none" stroke="#22b863" stroke-opacity=".35" stroke-width="1.5" marker-end="url(#arr)"/><path d="M550,130.0 H618" fill="none" stroke="#22b863" stroke-width="1.5" class="bus"/>
<text x="584.0" y="123.0" font-size="9" fill="#136b3a" text-anchor="middle">scores</text>
<path d="M730.0,186 V214 H470.0 V232" fill="none" stroke="#22b863" stroke-opacity=".35" stroke-width="1.5" marker-end="url(#arr)"/><path d="M730.0,186 V214 H470.0 V232" fill="none" stroke="#22b863" stroke-width="1.5" class="bus"/>
<text x="610.0" y="208" font-size="9" fill="#136b3a" text-anchor="middle">intent</text>
<path d="M620,290.0 H552" fill="none" stroke="#ff4d4d" stroke-opacity=".35" stroke-width="1.5" marker-end="url(#arrR)"/><path d="M620,290.0 H552" fill="none" stroke="#ff4d4d" stroke-width="1.5" class="bus"/>
<text x="586.0" y="283.0" font-size="9" fill="#ff4d4d" text-anchor="middle">halt</text>
<path d="M440.0,346 V392" fill="none" stroke="#ffb000" stroke-opacity=".35" stroke-width="1.5" marker-end="url(#arrA)"/><path d="M440.0,346 V392" fill="none" stroke="#ffb000" stroke-width="1.5" class="bus"/>
<text x="448.0" y="374" font-size="9" fill="#ffb000">approved</text>
<path d="M330,290.0 H262" fill="none" stroke="#ff4d4d" stroke-opacity=".35" stroke-width="1.5" marker-end="url(#arrR)"/><path d="M330,290.0 H262" fill="none" stroke="#ff4d4d" stroke-width="1.5" class="bus"/>
<text x="296.0" y="283.0" font-size="9" fill="#ff4d4d" text-anchor="middle">vetoes</text>
<path d="M550,450.0 H618" fill="none" stroke="#4fe3c9" stroke-opacity=".35" stroke-width="1.5" marker-end="url(#arr)"/><path d="M550,450.0 H618" fill="none" stroke="#4fe3c9" stroke-width="1.5" class="bus"/>
<text x="584.0" y="443.0" font-size="9" fill="#4fe3c9" text-anchor="middle">signed tx</text>
<path d="M730.0,506 V532 H150.0 V508" fill="none" stroke="#22b863" stroke-opacity=".35" stroke-width="1.5" marker-end="url(#arr)"/><path d="M730.0,506 V532 H150.0 V508" fill="none" stroke="#22b863" stroke-width="1.5" class="bus"/>
<text x="440.0" y="548" font-size="9" fill="#136b3a" text-anchor="middle">fills. balances</text>
<path d="M260,450.0 H328" fill="none" stroke="#22b863" stroke-opacity=".35" stroke-width="1.5" marker-end="url(#arr)"/><path d="M260,450.0 H328" fill="none" stroke="#22b863" stroke-width="1.5" class="bus"/>
<text x="294.0" y="443.0" font-size="9" fill="#136b3a" text-anchor="middle">exit orders</text>
<path d="M150.0,400 V354" fill="none" stroke="#22b863" stroke-opacity=".35" stroke-width="1.5" marker-end="url(#arr)"/><path d="M150.0,400 V354" fill="none" stroke="#22b863" stroke-width="1.5" class="bus"/>
<text x="158.0" y="374" font-size="9" fill="#136b3a">outcomes</text>
<path d="M150.0,240 V202 H410.0 V188" fill="none" stroke="#22b863" stroke-opacity=".35" stroke-width="1.5" marker-end="url(#arr)"/><path d="M150.0,240 V202 H410.0 V188" fill="none" stroke="#22b863" stroke-width="1.5" class="bus"/>
<text x="190.0" y="196" font-size="9" fill="#136b3a" text-anchor="middle">context</text>
<rect x="60" y="74" width="8" height="6" fill="#0b3a21"/><rect x="60" y="180" width="8" height="6" fill="#0b3a21"/><rect x="85" y="74" width="8" height="6" fill="#0b3a21"/><rect x="85" y="180" width="8" height="6" fill="#0b3a21"/><rect x="110" y="74" width="8" height="6" fill="#0b3a21"/><rect x="110" y="180" width="8" height="6" fill="#0b3a21"/><rect x="135" y="74" width="8" height="6" fill="#0b3a21"/><rect x="135" y="180" width="8" height="6" fill="#0b3a21"/><rect x="160" y="74" width="8" height="6" fill="#0b3a21"/><rect x="160" y="180" width="8" height="6" fill="#0b3a21"/><rect x="185" y="74" width="8" height="6" fill="#0b3a21"/><rect x="185" y="180" width="8" height="6" fill="#0b3a21"/><rect x="210" y="74" width="8" height="6" fill="#0b3a21"/><rect x="210" y="180" width="8" height="6" fill="#0b3a21"/><rect x="235" y="74" width="8" height="6" fill="#0b3a21"/><rect x="235" y="180" width="8" height="6" fill="#0b3a21"/><rect x="40" y="80" width="220" height="100" fill="#020a06" stroke="#22b863" stroke-width="1.5"/><circle cx="52" cy="92" r="3" fill="none" stroke="#136b3a"/><text x="62" y="96" font-size="9.5" fill="#136b3a" letter-spacing="2">U01</text>
<rect x="188" y="86" width="64" height="15" fill="none" stroke="#136b3a"/><text x="220" y="97" font-size="9.5" fill="#136b3a" text-anchor="middle" letter-spacing="2">PLANNED</text>
<text x="54" y="126" font-size="14" fill="#3dff8c" letter-spacing="2" font-weight="700">MARKET OBSERVER</text>
<text x="54" y="146" font-size="10.5" fill="#22b863">prices. volume. liquidity</text>
<text x="54" y="161" font-size="10.5" fill="#22b863">emits normalized snapshots</text>

<rect x="350" y="74" width="8" height="6" fill="#0b3a21"/><rect x="350" y="180" width="8" height="6" fill="#0b3a21"/><rect x="375" y="74" width="8" height="6" fill="#0b3a21"/><rect x="375" y="180" width="8" height="6" fill="#0b3a21"/><rect x="400" y="74" width="8" height="6" fill="#0b3a21"/><rect x="400" y="180" width="8" height="6" fill="#0b3a21"/><rect x="425" y="74" width="8" height="6" fill="#0b3a21"/><rect x="425" y="180" width="8" height="6" fill="#0b3a21"/><rect x="450" y="74" width="8" height="6" fill="#0b3a21"/><rect x="450" y="180" width="8" height="6" fill="#0b3a21"/><rect x="475" y="74" width="8" height="6" fill="#0b3a21"/><rect x="475" y="180" width="8" height="6" fill="#0b3a21"/><rect x="500" y="74" width="8" height="6" fill="#0b3a21"/><rect x="500" y="180" width="8" height="6" fill="#0b3a21"/><rect x="525" y="74" width="8" height="6" fill="#0b3a21"/><rect x="525" y="180" width="8" height="6" fill="#0b3a21"/><rect x="330" y="80" width="220" height="100" fill="#020a06" stroke="#22b863" stroke-width="1.5"/><circle cx="342" cy="92" r="3" fill="none" stroke="#136b3a"/><text x="352" y="96" font-size="9.5" fill="#136b3a" letter-spacing="2">U02</text>
<rect x="478" y="86" width="64" height="15" fill="none" stroke="#136b3a"/><text x="510" y="97" font-size="9.5" fill="#136b3a" text-anchor="middle" letter-spacing="2">PLANNED</text>
<text x="344" y="126" font-size="14" fill="#3dff8c" letter-spacing="2" font-weight="700">STRATEGY ENGINE</text>
<text x="344" y="146" font-size="10.5" fill="#22b863">rules that score candidates</text>
<text x="344" y="161" font-size="10.5" fill="#22b863">pluggable. versioned</text>

<rect x="640" y="74" width="8" height="6" fill="#0b3a21"/><rect x="640" y="180" width="8" height="6" fill="#0b3a21"/><rect x="665" y="74" width="8" height="6" fill="#0b3a21"/><rect x="665" y="180" width="8" height="6" fill="#0b3a21"/><rect x="690" y="74" width="8" height="6" fill="#0b3a21"/><rect x="690" y="180" width="8" height="6" fill="#0b3a21"/><rect x="715" y="74" width="8" height="6" fill="#0b3a21"/><rect x="715" y="180" width="8" height="6" fill="#0b3a21"/><rect x="740" y="74" width="8" height="6" fill="#0b3a21"/><rect x="740" y="180" width="8" height="6" fill="#0b3a21"/><rect x="765" y="74" width="8" height="6" fill="#0b3a21"/><rect x="765" y="180" width="8" height="6" fill="#0b3a21"/><rect x="790" y="74" width="8" height="6" fill="#0b3a21"/><rect x="790" y="180" width="8" height="6" fill="#0b3a21"/><rect x="815" y="74" width="8" height="6" fill="#0b3a21"/><rect x="815" y="180" width="8" height="6" fill="#0b3a21"/><rect x="620" y="80" width="220" height="100" fill="#020a06" stroke="#22b863" stroke-width="1.5"/><circle cx="632" cy="92" r="3" fill="none" stroke="#136b3a"/><text x="642" y="96" font-size="9.5" fill="#136b3a" letter-spacing="2">U03</text>
<rect x="768" y="86" width="64" height="15" fill="none" stroke="#136b3a"/><text x="800" y="97" font-size="9.5" fill="#136b3a" text-anchor="middle" letter-spacing="2">PLANNED</text>
<text x="634" y="126" font-size="14" fill="#3dff8c" letter-spacing="2" font-weight="700">DECISION ENGINE</text>
<text x="634" y="146" font-size="10.5" fill="#22b863">enter. exit. or pass</text>
<text x="634" y="161" font-size="10.5" fill="#22b863">each call logs its reason</text>

<rect x="60" y="234" width="8" height="6" fill="#0b3a21"/><rect x="60" y="340" width="8" height="6" fill="#0b3a21"/><rect x="85" y="234" width="8" height="6" fill="#0b3a21"/><rect x="85" y="340" width="8" height="6" fill="#0b3a21"/><rect x="110" y="234" width="8" height="6" fill="#0b3a21"/><rect x="110" y="340" width="8" height="6" fill="#0b3a21"/><rect x="135" y="234" width="8" height="6" fill="#0b3a21"/><rect x="135" y="340" width="8" height="6" fill="#0b3a21"/><rect x="160" y="234" width="8" height="6" fill="#0b3a21"/><rect x="160" y="340" width="8" height="6" fill="#0b3a21"/><rect x="185" y="234" width="8" height="6" fill="#0b3a21"/><rect x="185" y="340" width="8" height="6" fill="#0b3a21"/><rect x="210" y="234" width="8" height="6" fill="#0b3a21"/><rect x="210" y="340" width="8" height="6" fill="#0b3a21"/><rect x="235" y="234" width="8" height="6" fill="#0b3a21"/><rect x="235" y="340" width="8" height="6" fill="#0b3a21"/><rect x="40" y="240" width="220" height="100" fill="#020a06" stroke="#22b863" stroke-width="1.5"/><circle cx="52" cy="252" r="3" fill="none" stroke="#136b3a"/><text x="62" y="256" font-size="9.5" fill="#136b3a" letter-spacing="2">U04</text>
<rect x="188" y="246" width="64" height="15" fill="none" stroke="#136b3a"/><text x="220" y="257" font-size="9.5" fill="#136b3a" text-anchor="middle" letter-spacing="2">PLANNED</text>
<text x="54" y="286" font-size="14" fill="#3dff8c" letter-spacing="2" font-weight="700">MEMORY</text>
<text x="54" y="306" font-size="10.5" fill="#22b863">append-only state and history</text>
<text x="54" y="321" font-size="10.5" fill="#22b863">reconciled against chain</text>

<rect x="350" y="234" width="8" height="6" fill="#0b3a21"/><rect x="350" y="340" width="8" height="6" fill="#0b3a21"/><rect x="375" y="234" width="8" height="6" fill="#0b3a21"/><rect x="375" y="340" width="8" height="6" fill="#0b3a21"/><rect x="400" y="234" width="8" height="6" fill="#0b3a21"/><rect x="400" y="340" width="8" height="6" fill="#0b3a21"/><rect x="425" y="234" width="8" height="6" fill="#0b3a21"/><rect x="425" y="340" width="8" height="6" fill="#0b3a21"/><rect x="450" y="234" width="8" height="6" fill="#0b3a21"/><rect x="450" y="340" width="8" height="6" fill="#0b3a21"/><rect x="475" y="234" width="8" height="6" fill="#0b3a21"/><rect x="475" y="340" width="8" height="6" fill="#0b3a21"/><rect x="500" y="234" width="8" height="6" fill="#0b3a21"/><rect x="500" y="340" width="8" height="6" fill="#0b3a21"/><rect x="525" y="234" width="8" height="6" fill="#0b3a21"/><rect x="525" y="340" width="8" height="6" fill="#0b3a21"/><rect x="330" y="240" width="220" height="100" fill="#020a06" stroke="#ffb000" stroke-width="1.5"/><circle cx="342" cy="252" r="3" fill="none" stroke="#136b3a"/><text x="352" y="256" font-size="9.5" fill="#136b3a" letter-spacing="2">U05</text>
<rect x="478" y="246" width="64" height="15" fill="none" stroke="#136b3a"/><text x="510" y="257" font-size="9.5" fill="#136b3a" text-anchor="middle" letter-spacing="2">PLANNED</text>
<text x="344" y="286" font-size="14" fill="#ffb000" letter-spacing="2" font-weight="700">RISK ENGINE</text>
<text x="344" y="306" font-size="10.5" fill="#22b863">limits. simulation. checks</text>
<text x="344" y="321" font-size="10.5" fill="#22b863">can veto any action</text>

<rect x="640" y="234" width="8" height="6" fill="#0b3a21"/><rect x="640" y="340" width="8" height="6" fill="#0b3a21"/><rect x="665" y="234" width="8" height="6" fill="#0b3a21"/><rect x="665" y="340" width="8" height="6" fill="#0b3a21"/><rect x="690" y="234" width="8" height="6" fill="#0b3a21"/><rect x="690" y="340" width="8" height="6" fill="#0b3a21"/><rect x="715" y="234" width="8" height="6" fill="#0b3a21"/><rect x="715" y="340" width="8" height="6" fill="#0b3a21"/><rect x="740" y="234" width="8" height="6" fill="#0b3a21"/><rect x="740" y="340" width="8" height="6" fill="#0b3a21"/><rect x="765" y="234" width="8" height="6" fill="#0b3a21"/><rect x="765" y="340" width="8" height="6" fill="#0b3a21"/><rect x="790" y="234" width="8" height="6" fill="#0b3a21"/><rect x="790" y="340" width="8" height="6" fill="#0b3a21"/><rect x="815" y="234" width="8" height="6" fill="#0b3a21"/><rect x="815" y="340" width="8" height="6" fill="#0b3a21"/><rect x="620" y="240" width="220" height="100" fill="#020a06" stroke="#ff4d4d" stroke-width="1.5"/><circle cx="632" cy="252" r="3" fill="none" stroke="#136b3a"/><text x="642" y="256" font-size="9.5" fill="#136b3a" letter-spacing="2">U06</text>
<rect x="768" y="246" width="64" height="15" fill="none" stroke="#136b3a"/><text x="800" y="257" font-size="9.5" fill="#136b3a" text-anchor="middle" letter-spacing="2">PLANNED</text>
<text x="634" y="286" font-size="14" fill="#ff4d4d" letter-spacing="2" font-weight="700">EMERGENCY STOP</text>
<text x="634" y="306" font-size="10.5" fill="#22b863">halts all new execution</text>
<text x="634" y="321" font-size="10.5" fill="#22b863">operator controlled</text>

<rect x="60" y="394" width="8" height="6" fill="#0b3a21"/><rect x="60" y="500" width="8" height="6" fill="#0b3a21"/><rect x="85" y="394" width="8" height="6" fill="#0b3a21"/><rect x="85" y="500" width="8" height="6" fill="#0b3a21"/><rect x="110" y="394" width="8" height="6" fill="#0b3a21"/><rect x="110" y="500" width="8" height="6" fill="#0b3a21"/><rect x="135" y="394" width="8" height="6" fill="#0b3a21"/><rect x="135" y="500" width="8" height="6" fill="#0b3a21"/><rect x="160" y="394" width="8" height="6" fill="#0b3a21"/><rect x="160" y="500" width="8" height="6" fill="#0b3a21"/><rect x="185" y="394" width="8" height="6" fill="#0b3a21"/><rect x="185" y="500" width="8" height="6" fill="#0b3a21"/><rect x="210" y="394" width="8" height="6" fill="#0b3a21"/><rect x="210" y="500" width="8" height="6" fill="#0b3a21"/><rect x="235" y="394" width="8" height="6" fill="#0b3a21"/><rect x="235" y="500" width="8" height="6" fill="#0b3a21"/><rect x="40" y="400" width="220" height="100" fill="#020a06" stroke="#22b863" stroke-width="1.5"/><circle cx="52" cy="412" r="3" fill="none" stroke="#136b3a"/><text x="62" y="416" font-size="9.5" fill="#136b3a" letter-spacing="2">U07</text>
<rect x="188" y="406" width="64" height="15" fill="none" stroke="#136b3a"/><text x="220" y="417" font-size="9.5" fill="#136b3a" text-anchor="middle" letter-spacing="2">PLANNED</text>
<text x="54" y="446" font-size="14" fill="#3dff8c" letter-spacing="2" font-weight="700">POSITION MANAGER</text>
<text x="54" y="466" font-size="10.5" fill="#22b863">size. entry. targets. stops</text>
<text x="54" y="481" font-size="10.5" fill="#22b863">triggers exits</text>

<rect x="350" y="394" width="8" height="6" fill="#0b3a21"/><rect x="350" y="500" width="8" height="6" fill="#0b3a21"/><rect x="375" y="394" width="8" height="6" fill="#0b3a21"/><rect x="375" y="500" width="8" height="6" fill="#0b3a21"/><rect x="400" y="394" width="8" height="6" fill="#0b3a21"/><rect x="400" y="500" width="8" height="6" fill="#0b3a21"/><rect x="425" y="394" width="8" height="6" fill="#0b3a21"/><rect x="425" y="500" width="8" height="6" fill="#0b3a21"/><rect x="450" y="394" width="8" height="6" fill="#0b3a21"/><rect x="450" y="500" width="8" height="6" fill="#0b3a21"/><rect x="475" y="394" width="8" height="6" fill="#0b3a21"/><rect x="475" y="500" width="8" height="6" fill="#0b3a21"/><rect x="500" y="394" width="8" height="6" fill="#0b3a21"/><rect x="500" y="500" width="8" height="6" fill="#0b3a21"/><rect x="525" y="394" width="8" height="6" fill="#0b3a21"/><rect x="525" y="500" width="8" height="6" fill="#0b3a21"/><rect x="330" y="400" width="220" height="100" fill="#020a06" stroke="#22b863" stroke-width="1.5"/><circle cx="342" cy="412" r="3" fill="none" stroke="#136b3a"/><text x="352" y="416" font-size="9.5" fill="#136b3a" letter-spacing="2">U08</text>
<rect x="478" y="406" width="64" height="15" fill="none" stroke="#136b3a"/><text x="510" y="417" font-size="9.5" fill="#136b3a" text-anchor="middle" letter-spacing="2">PLANNED</text>
<text x="344" y="446" font-size="14" fill="#3dff8c" letter-spacing="2" font-weight="700">EXECUTION ENGINE</text>
<text x="344" y="466" font-size="10.5" fill="#22b863">build. simulate. sign. send</text>
<text x="344" y="481" font-size="10.5" fill="#22b863">confirms or retries</text>

<rect x="640" y="394" width="8" height="6" fill="#0b3a21"/><rect x="640" y="500" width="8" height="6" fill="#0b3a21"/><rect x="665" y="394" width="8" height="6" fill="#0b3a21"/><rect x="665" y="500" width="8" height="6" fill="#0b3a21"/><rect x="690" y="394" width="8" height="6" fill="#0b3a21"/><rect x="690" y="500" width="8" height="6" fill="#0b3a21"/><rect x="715" y="394" width="8" height="6" fill="#0b3a21"/><rect x="715" y="500" width="8" height="6" fill="#0b3a21"/><rect x="740" y="394" width="8" height="6" fill="#0b3a21"/><rect x="740" y="500" width="8" height="6" fill="#0b3a21"/><rect x="765" y="394" width="8" height="6" fill="#0b3a21"/><rect x="765" y="500" width="8" height="6" fill="#0b3a21"/><rect x="790" y="394" width="8" height="6" fill="#0b3a21"/><rect x="790" y="500" width="8" height="6" fill="#0b3a21"/><rect x="815" y="394" width="8" height="6" fill="#0b3a21"/><rect x="815" y="500" width="8" height="6" fill="#0b3a21"/><rect x="620" y="400" width="220" height="100" fill="#020a06" stroke="#4fe3c9" stroke-width="1.5"/><circle cx="632" cy="412" r="3" fill="none" stroke="#136b3a"/><text x="642" y="416" font-size="9.5" fill="#136b3a" letter-spacing="2">U09</text>
<rect x="782" y="406" width="50" height="15" fill="#4fe3c9"/><text x="807" y="417" font-size="9.5" fill="#000000" text-anchor="middle" letter-spacing="2" font-weight="700">LIVE</text>
<text x="634" y="446" font-size="14" fill="#4fe3c9" letter-spacing="2" font-weight="700">WALLET</text>
<text x="634" y="466" font-size="10.5" fill="#22b863">bmoPF...JEmf</text>
<text x="634" y="481" font-size="10.5" fill="#22b863">sole signing identity</text>

<rect x="325" y="235" width="230" height="110" fill="none" stroke="#ffb000" class="pulse" opacity=".4"/>
<rect x="620" y="400" width="220" height="100" fill="none" stroke="#4fe3c9" stroke-width="2" filter="url(#glow)" class="pulse"/>
<rect width="880" height="580" rx="14" fill="url(#scan)" pointer-events="none"/>
<rect width="880" height="580" rx="14" fill="url(#vig)" pointer-events="none"/>
<rect x="1" y="1" width="878" height="578" rx="13" fill="none" stroke="#136b3a" stroke-width="1.5"/>
</svg>
