<svg xmlns="http://www.w3.org/2000/svg" viewBox="0 0 880 26" width="880" height="26" role="img" aria-label="divider"><style>
text{font-family:ui-monospace,SFMono-Regular,Menlo,Consolas,'Liberation Mono','DejaVu Sans Mono',monospace;}
.b{font-weight:700}
.blink{animation:blink 1.1s steps(1) infinite}
.blinkslow{animation:blink 2.4s steps(1) infinite}
.pulse{animation:pulse 2.6s ease-in-out infinite}
@keyframes blink{0%{opacity:1}50%{opacity:0}100%{opacity:1}}
@keyframes pulse{0%,100%{opacity:.35}50%{opacity:1}}
@media (prefers-reduced-motion: reduce){.blink,.blinkslow,.pulse{animation:none}}

</style><defs>
<filter id="glow" x="-20%" y="-20%" width="140%" height="140%">
  <feGaussianBlur stdDeviation="2.2" result="b"/>
  <feMerge><feMergeNode in="b"/><feMergeNode in="SourceGraphic"/></feMerge>
</filter>
<filter id="glowsoft" x="-10%" y="-40%" width="120%" height="180%">
  <feGaussianBlur stdDeviation="1.1" result="b"/>
  <feMerge><feMergeNode in="b"/><feMergeNode in="SourceGraphic"/></feMerge>
</filter>
<filter id="glowbig" x="-30%" y="-30%" width="160%" height="160%">
  <feGaussianBlur stdDeviation="5" result="b"/>
  <feMerge><feMergeNode in="b"/><feMergeNode in="b"/><feMergeNode in="SourceGraphic"/></feMerge>
</filter>
<pattern id="scan" width="4" height="4" patternUnits="userSpaceOnUse">
  <rect width="4" height="1" fill="#000" opacity=".38"/>
</pattern>
<pattern id="dots" width="20" height="20" patternUnits="userSpaceOnUse">
  <rect x="9.5" y="9.5" width="1" height="1" fill="#0b3a21"/>
</pattern>
<radialGradient id="vig" cx="50%" cy="50%" r="75%">
  <stop offset="60%" stop-color="#000" stop-opacity="0"/>
  <stop offset="100%" stop-color="#000" stop-opacity=".75"/>
</radialGradient>
<linearGradient id="roll" x1="0" y1="0" x2="0" y2="1">
  <stop offset="0" stop-color="#3dff8c" stop-opacity="0"/>
  <stop offset=".85" stop-color="#3dff8c" stop-opacity=".06"/>
  <stop offset="1" stop-color="#3dff8c" stop-opacity="0"/>
</linearGradient>
<marker id="arr" viewBox="0 0 10 10" refX="8" refY="5" markerWidth="7" markerHeight="7" orient="auto-start-reverse">
  <path d="M0,0 L10,5 L0,10 z" fill="#22b863"/>
</marker>
<marker id="arrA" viewBox="0 0 10 10" refX="8" refY="5" markerWidth="7" markerHeight="7" orient="auto-start-reverse">
  <path d="M0,0 L10,5 L0,10 z" fill="#ffb000"/>
</marker>
<marker id="arrR" viewBox="0 0 10 10" refX="8" refY="5" markerWidth="7" markerHeight="7" orient="auto-start-reverse">
  <path d="M0,0 L10,5 L0,10 z" fill="#ff4d4d"/>
</marker>

</defs><line x1="0" y1="13" x2="880" y2="13" stroke="#136b3a" stroke-dasharray="2 5"/><line x1="0" y1="8" x2="0" y2="18" stroke="#136b3a"/><line x1="110" y1="8" x2="110" y2="18" stroke="#136b3a"/><line x1="220" y1="8" x2="220" y2="18" stroke="#136b3a"/><line x1="330" y1="8" x2="330" y2="18" stroke="#136b3a"/><line x1="440" y1="8" x2="440" y2="18" stroke="#136b3a"/><line x1="550" y1="8" x2="550" y2="18" stroke="#136b3a"/><line x1="660" y1="8" x2="660" y2="18" stroke="#136b3a"/><line x1="770" y1="8" x2="770" y2="18" stroke="#136b3a"/><line x1="880" y1="8" x2="880" y2="18" stroke="#136b3a"/><rect x="0" y="11" width="70" height="4" fill="#3dff8c" filter="url(#glow)"><animate attributeName="x" values="-70;880" dur="3.2s" repeatCount="indefinite"/></rect></svg>
